<svg xmlns="http://www.w3.org/2000/svg" width="339" height="182" fill="none" viewBox="0 0 339 182">
    <path fill="#3F3D56" d="M73.277 181.607h-.763c0-9.492-3.78-18.595-10.508-25.306-6.728-6.712-15.853-10.483-25.367-10.483-9.515 0-18.64 3.771-25.368 10.483C4.543 163.012.763 172.115.763 181.607H0c0-9.694 3.86-18.99 10.731-25.845 6.871-6.854 16.19-10.705 25.908-10.705 9.717 0 19.036 3.851 25.907 10.705 6.871 6.855 10.731 16.151 10.731 25.845zM338.907 181.607h-.763c0-9.492-3.78-18.595-10.508-25.306-6.728-6.712-15.853-10.483-25.368-10.483-9.514 0-18.639 3.771-25.367 10.483-6.728 6.711-10.508 15.814-10.508 25.306h-.763c0-9.694 3.86-18.99 10.731-25.845 6.871-6.854 16.19-10.705 25.907-10.705 9.718 0 19.037 3.851 25.908 10.705 6.871 6.855 10.731 16.151 10.731 25.845zM249.219 94.42h-.764c0-36.108-29.448-65.485-65.644-65.485-36.196 0-65.644 29.377-65.644 65.485h-.763c0-36.528 29.79-66.246 66.407-66.246 36.618 0 66.408 29.718 66.408 66.246z"/>
    <path fill="#FF6584" d="M55.53 30.077c8.326 0 15.076-6.733 15.076-15.038C70.606 6.733 63.856 0 55.53 0c-8.325 0-15.075 6.733-15.075 15.039 0 8.305 6.75 15.038 15.075 15.038z"/>
    <path fill="#3F3D56" d="M58.733 118.552l25.9-30.769h50.919l31.117 30.236-.628.403h.224v62.89H58.768v-62.89l-.035.13z"/>
    <path fill="#3F3D56" d="M74.315 105.175h5.871V84.902h-5.87v20.273z"/>
    <path fill="#D85B31" d="M84.229 87.38l31.925 37.339v56.593H58.769v-63.696l25.46-30.236z"/>
    <path fill="#3F3D56" d="M108.776 132.129h-11.72v11.954h11.72v-11.954zM108.776 148.395h-11.72v11.954h11.72v-11.954z"/>
    <path fill="#fff" d="M108.776 132.129h-11.72v11.954h11.72v-11.954zM108.776 148.395h-11.72v11.954h11.72v-11.954z"/>
    <path fill="#3F3D56" d="M92.568 132.129h-11.72v11.954h11.72v-11.954zM92.568 148.395h-11.72v11.954h11.72v-11.954z"/>
    <path fill="#fff" d="M92.568 132.129h-11.72v11.954h11.72v-11.954zM92.568 148.395h-11.72v11.954h11.72v-11.954z"/>
    <path fill="#3F3D56" d="M76.36 132.129H64.64v11.954h11.72v-11.954zM76.36 148.395H64.64v11.954h11.72v-11.954z"/>
    <path fill="#fff" d="M76.36 132.129H64.64v11.954h11.72v-11.954zM76.36 148.395H64.64v11.954h11.72v-11.954z"/>
    <path fill="#D85B31" d="M190.444 15.23h-5.343v13.325h5.343V15.229z"/>
    <path fill="#D85B31" d="M190.063 27.412h-45.417v154.195h45.417V27.412z"/>
    <path fill="#3F3D56" d="M208.382 27.412h-18.32v154.195h18.32V27.412z"/>
    <path fill="#fff" d="M159.721 40.738h-6.869v6.853h6.869v-6.853zM170.789 40.738h-6.87v6.853h6.87v-6.853zM181.857 40.738h-6.87v6.853h6.87v-6.853zM159.912 56.348h-6.87V63.2h6.87v-6.853zM170.98 56.348h-6.87V63.2h6.87v-6.853zM182.048 56.348h-6.87V63.2h6.87v-6.853zM160.103 71.957h-6.87v6.854h6.87v-6.854zM171.171 71.957h-6.87v6.854h6.87v-6.854zM182.239 71.957h-6.87v6.854h6.87v-6.854zM160.294 87.567h-6.87v6.853h6.87v-6.853zM171.362 87.567h-6.87v6.853h6.87v-6.853zM182.43 87.567h-6.87v6.853h6.87v-6.853zM160.484 103.177h-6.869v6.853h6.869v-6.853zM171.552 103.177h-6.869v6.853h6.869v-6.853zM182.62 103.177h-6.87v6.853h6.87v-6.853zM160.675 118.787h-6.869v6.853h6.869v-6.853zM171.743 118.787h-6.869v6.853h6.869v-6.853zM182.811 118.787h-6.87v6.853h6.87v-6.853zM160.866 134.397h-6.869v6.853h6.869v-6.853zM171.934 134.397h-6.87v6.853h6.87v-6.853zM183.002 134.397h-6.87v6.853h6.87v-6.853zM161.057 150.006h-6.869v6.853h6.869v-6.853zM172.125 150.006h-6.87v6.853h6.87v-6.853zM172.125 168.281h-6.87v12.945h6.87v-12.945zM183.193 150.006h-6.87v6.853h6.87v-6.853z"/>
    <path fill="#3F3D56" d="M193.116 15.23h-3.054v12.944h3.054V15.229z"/>
    <path fill="#D85B31" d="M247.692 82.999h-5.343v7.897h5.343V83z"/>
    <path fill="#D85B31" d="M247.311 90.22h-45.417v91.387h45.417V90.219z"/>
    <path fill="#3F3D56" d="M265.63 90.22h-18.319v91.387h18.319V90.219z"/>
    <path fill="#fff" d="M217.733 103.177h-6.87v6.853h6.87v-6.853zM228.8 103.177h-6.869v6.853h6.869v-6.853zM239.868 103.177h-6.869v6.853h6.869v-6.853zM217.923 118.787h-6.869v6.853h6.869v-6.853zM228.991 118.787h-6.869v6.853h6.869v-6.853zM240.059 118.787h-6.87v6.853h6.87v-6.853zM218.114 134.397h-6.87v6.853h6.87v-6.853zM229.182 134.397h-6.87v6.853h6.87v-6.853zM240.25 134.397h-6.87v6.853h6.87v-6.853zM218.305 150.006h-6.87v6.853h6.87v-6.853zM229.373 150.006h-6.87v6.853h6.87v-6.853zM229.373 168.281h-6.87v12.945h6.87v-12.945zM240.441 150.006h-6.87v6.853h6.87v-6.853z"/>
    <path fill="#3F3D56" d="M250.364 82.999h-3.053v7.672h3.053v-7.672zM339 181.147H.093V182H339v-.853z"/>
    <path fill="#D85B31" d="M279.621 163.743c5.489 0 9.938-4.438 9.938-9.914 0-5.475-4.449-9.914-9.938-9.914-5.489 0-9.938 4.439-9.938 9.914 0 5.476 4.449 9.914 9.938 9.914z"/>
    <path fill="#000" d="M287.014 147.207c.927 2.163 1.053 4.585.355 6.832s-2.175 4.174-4.165 5.435c-1.991 1.262-4.366 1.776-6.702 1.451-2.336-.325-4.48-1.468-6.048-3.225.566 1.322 1.413 2.505 2.484 3.467 1.07.963 2.337 1.682 3.713 2.107 1.376.425 2.829.547 4.257.357 1.428-.19 2.798-.688 4.014-1.458 1.216-.771 2.25-1.796 3.03-3.005.779-1.209 1.286-2.572 1.485-3.995.199-1.424.085-2.874-.333-4.249-.418-1.376-1.132-2.644-2.09-3.717z" opacity=".2"/>
    <path fill="#3F3D56" d="M279.648 153.829h.028l.491 28.109h-1.038l.519-28.109z"/>
    <path fill="#3F3D56" d="M281.458 169.14l-.229-.434-1.643.863.229.434 1.643-.863z"/>
    <path fill="#D85B31" d="M308.84 154.27c8.346 0 15.113-6.75 15.113-15.076 0-8.327-6.767-15.077-15.113-15.077-8.347 0-15.113 6.75-15.113 15.077 0 8.326 6.766 15.076 15.113 15.076z"/>
    <path fill="#000" d="M320.082 129.124c1.41 3.289 1.601 6.972.539 10.389-1.061 3.417-3.306 6.347-6.333 8.265-3.027 1.918-6.64 2.7-10.192 2.206-3.551-.495-6.811-2.233-9.197-4.904.861 2.01 2.15 3.809 3.777 5.272 1.628 1.464 3.554 2.557 5.647 3.204 2.093.647 4.302.832 6.474.543 2.171-.289 4.254-1.046 6.104-2.218 1.849-1.171 3.421-2.73 4.607-4.569 1.185-1.838 1.956-3.911 2.259-6.076.302-2.164.129-4.369-.507-6.46-.636-2.092-1.721-4.02-3.178-5.652z" opacity=".2"/>
    <path fill="#3F3D56" d="M308.881 139.193h.042l.747 42.745h-1.578l.789-42.745z"/>
    <path fill="#3F3D56" d="M311.633 162.476l-.348-.66-2.499 1.313.349.659 2.498-1.312z"/>
    <path fill="#D85B31" d="M10.175 163.363c5.489 0 9.938-4.439 9.938-9.915 0-5.475-4.45-9.914-9.938-9.914-5.49 0-9.939 4.439-9.939 9.914 0 5.476 4.45 9.915 9.939 9.915z"/>
    <path fill="#000" d="M17.568 146.826c.927 2.164 1.052 4.585.354 6.832-.698 2.248-2.174 4.174-4.165 5.435-1.99 1.262-4.366 1.776-6.701 1.451-2.336-.325-4.48-1.468-6.049-3.225.567 1.322 1.414 2.505 2.484 3.468 1.07.962 2.338 1.681 3.714 2.106 1.376.426 2.829.548 4.257.357 1.428-.19 2.797-.687 4.014-1.458 1.216-.771 2.25-1.796 3.03-3.005.779-1.208 1.286-2.572 1.485-3.995.199-1.424.085-2.873-.333-4.249-.419-1.375-1.132-2.643-2.09-3.717z" opacity=".2"/>
    <path fill="#3F3D56" d="M10.202 153.449h.027l.491 28.108H9.683l.519-28.108z"/>
    <path fill="#3F3D56" d="M12.012 168.759l-.23-.434-1.642.863.229.434 1.643-.863zM231.439 14.215l3.513-2.803c-2.729-.3-3.851 1.184-4.309 2.36-2.133-.884-4.454.274-4.454.274l7.03 2.546c-.355-.945-.972-1.77-1.78-2.377zM55.116 28.302l3.513-2.804c-2.73-.3-3.85 1.185-4.31 2.36-2.132-.883-4.453.275-4.453.275l7.03 2.545c-.355-.945-.973-1.769-1.78-2.376zM284.87 42.77l3.513-2.804c-2.729-.3-3.85 1.185-4.309 2.36-2.133-.883-4.454.274-4.454.274l7.03 2.546c-.355-.945-.972-1.77-1.78-2.377zM84.121 20.687l3.514-2.803c-2.73-.3-3.851 1.184-4.31 2.36-2.133-.884-4.454.274-4.454.274l7.03 2.546c-.355-.945-.972-1.77-1.78-2.377zM90.61 51.145l3.513-2.803c-2.73-.3-3.851 1.185-4.31 2.36-2.132-.883-4.454.274-4.454.274l7.03 2.546c-.355-.945-.972-1.77-1.78-2.377zM227.241 67.136l3.513-2.803c-2.729-.3-3.851 1.184-4.31 2.36-2.132-.884-4.453.274-4.453.274l7.029 2.546c-.354-.945-.972-1.77-1.779-2.377zM40.455 173.611H16.793v.762h3.69v7.234h.763v-7.234H35.62v7.234h.763v-7.234h4.072v-.762zM64.499 176.657c-.934 0-1.851.246-2.66.712-.821-.741-1.84-1.228-2.933-1.402-1.093-.174-2.214-.028-3.225.421-1.012.449-1.871 1.181-2.474 2.107-.602.926-.922 2.007-.92 3.112h17.536c-.096-1.344-.698-2.602-1.686-3.52-.988-.918-2.288-1.429-3.638-1.43zM154.951 176.657c-.934 0-1.852.246-2.66.712-.821-.741-1.84-1.228-2.934-1.402-1.093-.174-2.213-.028-3.225.421-1.011.449-1.87 1.181-2.473 2.107-.603.926-.923 2.007-.921 3.112h17.537c-.096-1.344-.698-2.602-1.686-3.52-.988-.918-2.288-1.429-3.638-1.43zM214.107 176.657c-.934 0-1.852.246-2.66.712-.821-.741-1.84-1.228-2.933-1.402-1.093-.174-2.214-.028-3.225.421-1.012.449-1.871 1.181-2.474 2.107-.602.926-.922 2.007-.921 3.112h17.537c-.096-1.344-.698-2.602-1.686-3.52-.988-.918-2.288-1.429-3.638-1.43zM291.964 176.657c-.934 0-1.852.246-2.66.712-.821-.741-1.84-1.228-2.933-1.402-1.094-.174-2.214-.028-3.225.421-1.012.449-1.871 1.181-2.474 2.107-.602.926-.922 2.007-.921 3.112h17.537c-.096-1.344-.698-2.602-1.686-3.52-.988-.918-2.288-1.429-3.638-1.43zM329.366 176.657c-.934 0-1.852.246-2.66.712-.821-.741-1.84-1.228-2.933-1.402-1.094-.174-2.214-.028-3.226.421-1.011.449-1.87 1.181-2.473 2.107-.602.926-.923 2.007-.921 3.112h17.537c-.096-1.344-.698-2.602-1.686-3.52-.988-.918-2.288-1.429-3.638-1.43zM49.233 154.956h-6.106v6.092h2.83v20.525h.764v-20.525h2.512v-6.092zM40.502 171.333H16.839v.762h23.663v-.762zM40.502 169.43H16.839v.761h23.663v-.761zM40.502 167.526H16.839v.762h23.663v-.762z"/>
</svg>
