<svg xmlns="http://www.w3.org/2000/svg" width="350" height="248" fill="none" viewBox="0 0 350 248">
    <path fill="#F2F2F2" d="M348.335 80.82c-4.829 16.748-18.926 28.473-33.631 38.433-2.053 1.391-4.107 2.749-6.162 4.076-.014.006-.028.019-.042.026-.099.063-.198.127-.29.191l-1.269.817.231.104s.227.12-.021.019c-.074-.031-.151-.059-.225-.09-8.543-3.445-17.237-7.145-23.784-13.599-6.792-6.703-10.76-17.215-7.083-26.02.483-1.154 1.094-2.25 1.82-3.268.299-.427.62-.835.954-1.236 2.029-2.476 4.68-4.367 7.682-5.478 3.001-1.111 6.245-1.403 9.396-.846 3.152.558 6.098 1.945 8.536 4.019 2.438 2.073 4.28 4.76 5.336 7.78 1.08-10.058-7.214-18.484-15.196-24.701-7.986-6.214-17.06-12.981-18.604-22.984-.862-5.566 1.074-10.96 4.599-15.29.109-.13.218-.262.331-.39 4.291-5.043 10.327-8.281 16.902-9.068 12.245-1.273 24.139 5.209 33.035 13.723 14.318 13.698 22.973 34.737 17.485 53.781z"/>
    <path fill="#fff" d="M325.318 58.911c2.351 3.657 4.155 7.636 5.356 11.813 1.016 3.734 1.469 7.598 1.342 11.465-.22 7.949-2.666 15.716-6.514 22.634-2.977 5.246-6.605 10.094-10.798 14.43-2.053 1.391-4.107 2.749-6.162 4.076-.014.006-.028.019-.042.026-.099.063-.198.127-.29.191l-1.269.817s.458.224.21.123c-.074-.031-.151-.059-.225-.09.766-6.277.015-12.647-2.187-18.574-2.203-5.928-5.795-11.242-10.474-15.495-4.691-4.19-10.305-7.21-16.386-8.818.299-.427.62-.835.954-1.236 2.349.659 4.634 1.523 6.83 2.584 7.85 3.77 14.277 9.967 18.331 17.674 3.638 6.998 5.204 14.889 4.513 22.745.351-.318.703-.643 1.043-.965 6.492-6.052 12.258-12.999 16.16-21.016 3.385-6.79 5.049-14.308 4.845-21.892-.318-8.27-3.613-15.929-8.384-22.597-5.11-7.136-11.517-13.45-18.358-18.92-7.008-5.613-14.675-10.347-22.833-14.097-.184-.086-.328-.239-.402-.428-.074-.189-.073-.4.004-.587.054-.169.173-.31.331-.391.081-.035.168-.051.257-.047.088.003.174.027.251.069 1.008.463 2.008.933 3 1.424 8.264 4.084 15.988 9.18 22.995 15.168 6.769 5.771 13.141 12.364 17.902 19.914z"/>
    <path fill="#2F2E41" d="M269.542 176.722c9.89 0 17.907-8.018 17.907-17.907 0-9.89-8.017-17.908-17.907-17.908s-17.907 8.018-17.907 17.908c0 9.889 8.017 17.907 17.907 17.907z"/>
    <path fill="#A0616A" d="M307.465 235.702c-3.077 2.138-6.328 4.013-9.72 5.605l-.501-.886-4.799-8.425-.421-.739-2.455-4.308-.005-.005-7.751-13.619-3.984-6.991 11.831-8.298 4.602 9.731 2.496 5.285 10.272 21.724.435.926z"/>
    <path fill="#6C63FF" d="M296.895 202.846l-1.484-2.324-6.561-10.293c-.896-1.999-2.548-3.562-4.594-4.346-2.046-.785-4.319-.726-6.322.163s-3.572 2.535-4.363 4.579c-.791 2.043-.74 4.317.142 6.323l4.055 14.448c.114.409.315.789.588 1.114.273.325.613.587.996.77.383.183.801.281 1.226.289.424.008.845-.075 1.235-.244l.041-.015 12.408-5.543 1.337-.598c.39-.176.738-.433 1.02-.755.282-.322.491-.701.614-1.111.123-.41.157-.841.098-1.265-.058-.424-.207-.831-.436-1.192z"/>
    <path fill="#A0616A" d="M261.243 203.17l-3.452 7.796-.75 1.696-12.783 28.878-.41.926c-3.461-1.443-6.795-3.178-9.963-5.184l.344-.972 10.434-29.44 2.562-7.229 5.609 1.412 8.409 2.117zM283.445 170.379c4.026-7.365 1.32-16.599-6.045-20.625s-16.599-1.319-20.625 6.046-1.32 16.599 6.045 20.625 16.599 1.319 20.625-6.046z"/>
    <path fill="#D85B31" d="M296.601 206.435c-.22-2.003-.618-3.981-1.19-5.913-1.723-5.816-5.018-11.044-9.522-15.107-1.655-1.485-3.801-2.306-6.025-2.304h-21.41c-1.539-.004-3.053.387-4.398 1.134-1.345.748-2.476 1.828-3.284 3.137-.809 1.309-1.269 2.803-1.336 4.341-.067 1.537.261 3.066.953 4.44l2.445 4.89 4.957 9.913 1.189 2.375 5.301 10.606.42.84 26.908 7.402.117-.258c.101-.228.202-.451.298-.674.147-.339.294-.668.431-1.002 2.713-6.435 3.994-12.161 4.303-17.203.139-2.206.086-4.42-.157-6.617z"/>
    <path fill="#D85B31" d="M262.337 185.886c-1.981-.928-4.248-1.034-6.306-.293-2.058.74-3.739 2.265-4.675 4.242l-1.909 2.88-6.379 9.629c-.236.358-.393.762-.46 1.185-.066.424-.041.856.075 1.269.116.413.319.796.596 1.123.277.327.621.59 1.01.772l.374.177 12.378 5.792.881.41c.332.157.691.248 1.058.269.489.038.98-.047 1.428-.249.39-.174.739-.431 1.021-.753.282-.321.492-.7.614-1.11l4.283-14.332c.929-1.989 1.031-4.266.283-6.331-.748-2.064-2.284-3.748-4.272-4.68z"/>
    <path fill="#2F2E41" d="M292.455 230.255c-.091-.315-.236-.612-.431-.876-.692-.928-1.52-1.747-2.455-2.43l-.005-.005c-3.255-2.466-9.735-5.346-22.235-5.422h-.02c-.573-.001-1.134.164-1.616.473-.483.31-.865.752-1.103 1.273l-.309.679-1.99 4.374c-.168.376-.436.7-.774.937-1.797 1.27-7.518 5.877-10.475 14.676-.106.314-.207.633-.303.962 12.641 3.693 26.091 3.572 38.663-.349l.278-1.149 2.765-11.402.045-.187c.126-.512.113-1.048-.035-1.554zM254.14 153.53c3.473 2.394 7.595 3.668 11.813 3.651-1.504 1.043-3.217 1.748-5.02 2.065 5.608 1.203 11.404 1.236 17.025.096 1.249-.2 2.455-.614 3.564-1.224.552-.309 1.034-.73 1.413-1.237.379-.507.647-1.088.787-1.705.373-2.134-1.29-4.073-3.018-5.379-2.645-1.97-5.696-3.327-8.93-3.974-3.235-.646-6.572-.565-9.772.237-2.089.54-4.182 1.452-5.539 3.13-1.357 1.677-1.759 4.264-.466 5.992l-1.857-1.652z"/>
    <path fill="#3F3D56" d="M275.106 15.43H.55v1.101h274.556v-1.1zM9.903 11.557c1.824 0 3.302-1.478 3.302-3.301 0-1.823-1.478-3.301-3.302-3.301-1.823 0-3.301 1.478-3.301 3.3 0 1.824 1.478 3.302 3.301 3.302zM19.395 11.557c1.823 0 3.3-1.478 3.3-3.301 0-1.823-1.477-3.301-3.3-3.301-1.824 0-3.302 1.478-3.302 3.3 0 1.824 1.478 3.302 3.302 3.302zM28.886 11.557c1.823 0 3.301-1.478 3.301-3.301 0-1.823-1.478-3.301-3.301-3.301-1.823 0-3.302 1.478-3.302 3.3 0 1.824 1.479 3.302 3.302 3.302z"/>
    <path fill="#CCC" d="M215.645 79.292H59.816c-.463 0-.923-.09-1.351-.268-.429-.178-.818-.438-1.146-.766-.328-.328-.588-.717-.765-1.146-.178-.428-.27-.887-.27-1.351 0-.464.092-.923.27-1.352.177-.428.437-.817.765-1.145.328-.328.717-.588 1.146-.766.428-.177.888-.269 1.351-.269h155.829c.463 0 .923.092 1.351.27.428.177.818.437 1.146.765.328.328.588.717.765 1.145.178.429.269.888.269 1.352 0 .464-.091.923-.269 1.351-.177.429-.437.818-.765 1.146-.328.328-.718.588-1.146.766-.428.177-.888.268-1.351.268z"/>
    <path fill="#E6E6E6" d="M215.645 117.256H59.816c-.463 0-.923-.091-1.351-.269-.429-.177-.818-.437-1.146-.765-.328-.328-.588-.717-.765-1.146-.178-.428-.27-.888-.27-1.351 0-.464.092-.923.27-1.352.177-.428.437-.818.765-1.145.328-.328.717-.589 1.146-.766.428-.177.888-.269 1.351-.269h155.829c.463 0 .923.092 1.351.269.428.177.818.438 1.146.766.328.327.588.717.765 1.145.178.429.269.888.269 1.352 0 .463-.091.923-.269 1.351-.177.429-.437.818-.765 1.146-.328.328-.718.588-1.146.765-.428.178-.888.269-1.351.269zM215.645 131.824H59.816c-.936 0-1.834-.372-2.497-1.035-.662-.662-1.034-1.56-1.034-2.497 0-.936.372-1.835 1.034-2.497.663-.662 1.56-1.034 2.497-1.034h155.829c.936 0 1.834.372 2.497 1.034.662.662 1.034 1.561 1.034 2.497 0 .937-.372 1.835-1.034 2.497-.663.663-1.561 1.035-2.497 1.035z"/>
    <path fill="#CCC" d="M190.262 64.283H85.199c-.936 0-1.835-.372-2.497-1.034-.662-.662-1.034-1.56-1.034-2.497 0-.937.372-1.835 1.034-2.497.662-.663 1.56-1.035 2.497-1.035h105.063c.936 0 1.835.373 2.497 1.035.662.662 1.034 1.56 1.034 2.497 0 .936-.372 1.835-1.034 2.497-.662.662-1.561 1.034-2.497 1.034z"/>
    <path fill="#E6E6E6" d="M114.753 102.689H60.014c-.464 0-.923-.091-1.352-.268-.43-.177-.819-.437-1.147-.765-.329-.328-.59-.718-.767-1.146-.178-.429-.27-.889-.27-1.353 0-.464.092-.923.27-1.352.178-.429.438-.819.767-1.147.328-.328.718-.588 1.147-.765.429-.177.888-.268 1.352-.267h54.739c.937 0 1.835.372 2.497 1.034.662.662 1.035 1.56 1.035 2.497 0 .937-.373 1.835-1.035 2.497-.662.663-1.56 1.035-2.497 1.035zM215.843 102.689h-54.739c-.464 0-.924-.091-1.353-.268-.429-.177-.818-.437-1.147-.765-.328-.328-.589-.718-.766-1.146-.178-.429-.27-.889-.27-1.353 0-.464.092-.923.27-1.352.177-.429.438-.819.766-1.147.329-.328.718-.588 1.147-.765.429-.177.889-.268 1.353-.267h54.739c.464 0 .923.09 1.352.267.429.177.819.438 1.148.766.328.328.588.717.766 1.146.178.428.269.888.269 1.352 0 .464-.091.924-.269 1.353-.178.428-.438.818-.766 1.146-.329.328-.719.588-1.148.765-.429.177-.888.268-1.352.268z"/>
    <path fill="#3F3D56" d="M271.804 0H3.848c-1.021.002-2 .408-2.721 1.13C.406 1.853 0 2.832 0 3.853v181.572c.001 1.02.407 1.998 1.128 2.719.722.722 1.7 1.127 2.72 1.129h200.375c-.051-.365-.091-.734-.132-1.099H3.848c-.73-.001-1.428-.29-1.943-.806-.516-.515-.806-1.214-.806-1.943V3.853c0-.73.29-1.43.805-1.945.515-.517 1.214-.808 1.944-.81h267.956c.73.001 1.43.292 1.947.808.516.516.806 1.216.807 1.947v111.282c.365.025.734.056 1.099.091V3.853c-.001-1.022-.407-2.002-1.129-2.724C273.805.406 272.826 0 271.804 0z"/>
    <path fill="#3F3D56" d="M204.223 189.273c-.051-.365-.091-.734-.132-1.099-.01-.056-.015-.106-.02-.162-.147-1.331-.253-2.676-.319-4.035-.278 1.17-.53 2.344-.754 3.524.015.172.03.339.05.511.005.056.01.106.02.162.041.365.081.734.132 1.099.142 1.129.314 2.242.516 3.351l.016-.132c.141-1.068.303-2.131.496-3.194-.004-.008-.006-.017-.005-.025zm71.434-75.064c-.365-.036-.734-.066-1.099-.092-.055-.005-.106-.005-.162-.01-1.62-.121-3.26-.182-4.911-.182-9.344.003-18.584 1.965-27.123 5.759-8.539 3.794-16.188 9.337-22.453 16.27-6.265 6.933-11.007 15.102-13.92 23.981-2.913 8.878-3.932 18.269-2.991 27.566.015.172.03.339.05.511.005.056.01.106.02.162.041.365.081.734.132 1.099.142 1.129.314 2.242.516 3.351 2.012 10.992 6.736 21.308 13.744 30.012 7.008 8.703 16.079 15.52 26.388 19.83 1.053.435 2.116.851 3.195 1.23.708.258 1.417.496 2.136.724.516.167 1.038.324 1.559.476.74.218 1.489.425 2.243.618 9.254 2.374 18.91 2.726 28.312 1.033 9.402-1.693 18.328-5.392 26.172-10.845h.006c8.895-6.141 16.166-14.35 21.19-23.922 5.024-9.571 7.649-20.218 7.651-31.028 0-34.77-26.69-63.42-60.655-66.543zm31.373 120.567c-3.093 2.16-6.368 4.048-9.786 5.645-2.456 1.149-4.983 2.143-7.564 2.977-11.646 3.747-24.106 4.18-35.985 1.25-.891-.218-1.775-.456-2.653-.714-.865-.253-1.723-.521-2.572-.805-.693-.238-1.387-.481-2.075-.739-.719-.273-1.428-.557-2.137-.85-10.661-4.443-19.969-11.606-26.993-20.774-7.025-9.168-11.521-20.019-13.037-31.468-.004-.008-.006-.017-.005-.025-.051-.365-.091-.734-.132-1.099-.01-.056-.015-.106-.02-.162-.147-1.331-.253-2.676-.319-4.035-.056-1.068-.083-2.143-.081-3.225.019-17.449 6.959-34.178 19.298-46.517 12.338-12.338 29.067-19.278 46.516-19.297 1.651 0 3.291.06 4.911.182l.162.015c.365.025.734.056 1.099.091 33.408 3.119 59.643 31.313 59.643 65.526-.001 10.618-2.573 21.078-7.496 30.486-4.923 9.408-12.051 17.484-20.774 23.538zm-60.635 7.614c-.719-.273-1.428-.557-2.137-.85-10.661-4.443-19.969-11.606-26.993-20.774-7.025-9.168-11.521-20.019-13.037-31.468-.193 1.063-.355 2.126-.496 3.194-.005.046-.011.087-.015.132 2.011 10.992 6.735 21.308 13.743 30.012 7.008 8.703 16.079 15.52 26.388 19.83 1.053.435 2.116.851 3.195 1.23-.223-.43-.441-.865-.648-1.306zm28.001-128.283c-1.62-.121-3.26-.182-4.911-.182-9.344.003-18.584 1.965-27.123 5.759-8.539 3.794-16.188 9.337-22.453 16.27-6.265 6.933-11.007 15.102-13.92 23.981-2.913 8.878-3.932 18.269-2.991 27.566.015.172.03.339.05.511.005.056.01.106.02.162h1.023c-.01-.056-.015-.106-.02-.162-.147-1.331-.253-2.676-.319-4.035-.056-1.068-.083-2.143-.081-3.225.019-17.449 6.959-34.178 19.297-46.517 12.339-12.338 29.068-19.278 46.517-19.297 1.651 0 3.291.06 4.911.182l.162.015v-1.018c-.055-.005-.106-.005-.162-.01z"/>
    <path fill="#2B478B" d="M323.805 131.03c20.526.351 20.523 30.883-.001 31.23-20.525-.35-20.522-30.882.001-31.23z"/>
    <path fill="#fff" d="M323.805 155.148c-.291-.001-.57-.116-.775-.322-.206-.206-.322-.485-.322-.776v-5.818c0-.13-.052-.254-.144-.346-.091-.092-.216-.143-.345-.143H316.4c-.291 0-.57-.116-.776-.322-.206-.206-.321-.485-.321-.776 0-.291.115-.57.321-.776.206-.206.485-.321.776-.321h5.819c.129-.001.254-.052.345-.144.092-.091.144-.216.144-.345v-5.819c0-.291.115-.57.321-.776.206-.206.485-.321.776-.321.291 0 .57.115.776.321.206.206.321.485.321.776v5.819c.001.129.052.254.144.345.092.092.216.143.345.144h5.819c.291 0 .57.115.776.321.206.206.321.485.321.776 0 .291-.115.57-.321.776-.206.206-.485.322-.776.322h-5.819c-.129 0-.254.051-.345.143-.092.092-.143.216-.144.346v5.818c0 .291-.116.57-.321.776-.206.206-.485.321-.776.322z"/>
</svg>
